<svg width="60" height="60" viewBox="0 0 60 60" fill="none" xmlns="http://www.w3.org/2000/svg">
<circle cx="30" cy="30" r="30" fill="#F0BB00"/>
<path d="M40.6549 16.6694C40.4798 16.6693 40.3064 16.7038 40.1446 16.7707C39.9828 16.8377 39.8357 16.9359 39.7119 17.0597C39.5881 17.1836 39.4899 17.3306 39.4229 17.4924C39.3559 17.6542 39.3215 17.8276 39.3216 18.0028V18.8517C38.1971 20.246 36.7758 21.372 35.1613 22.1477C33.5467 22.9235 31.7795 23.3294 29.9883 23.3361H21.9883C20.9278 23.3373 19.911 23.7591 19.1611 24.509C18.4112 25.2588 17.9894 26.2756 17.9883 27.3361V30.0028C17.9894 31.0633 18.4112 32.08 19.1611 32.8299C19.911 33.5798 20.9278 34.0016 21.9883 34.0028H22.6333L19.4297 41.478C19.3426 41.6807 19.3073 41.9019 19.3268 42.1217C19.3464 42.3415 19.4202 42.553 19.5417 42.7372C19.6631 42.9214 19.8284 43.0725 20.0227 43.1771C20.2171 43.2816 20.4343 43.3363 20.6549 43.3361H25.9883C26.2493 43.3363 26.5046 43.2597 26.7224 43.1159C26.9403 42.9722 27.1111 42.7676 27.2135 42.5275L30.8452 34.0534C32.4861 34.1739 34.0848 34.6295 35.5427 35.392C37.0006 36.1545 38.2867 37.2078 39.3216 38.4869V39.3361C39.3216 39.6897 39.4621 40.0289 39.7121 40.2789C39.9622 40.529 40.3013 40.6694 40.6549 40.6694C41.0086 40.6694 41.3477 40.529 41.5978 40.2789C41.8478 40.0289 41.9883 39.6897 41.9883 39.3361V18.0028C41.9884 17.8276 41.954 17.6542 41.887 17.4924C41.82 17.3306 41.7218 17.1836 41.598 17.0597C41.4742 16.9359 41.3271 16.8377 41.1653 16.7707C41.0035 16.7038 40.8301 16.6693 40.6549 16.6694ZM21.9883 31.3361C21.6347 31.3359 21.2957 31.1953 21.0457 30.9453C20.7957 30.6953 20.6552 30.3563 20.6549 30.0028V27.3361C20.6552 26.9826 20.7957 26.6436 21.0457 26.3936C21.2957 26.1436 21.6347 26.003 21.9883 26.0028H23.3216V31.3361H21.9883ZM25.1094 40.6694H22.6771L25.5339 34.0028H27.9661L25.1094 40.6694ZM39.3216 34.6985C36.6926 32.5327 33.3945 31.3445 29.9883 31.336H25.9883V26.0027H29.9883C33.3946 25.994 36.6927 24.8056 39.3216 22.6396V34.6985Z" fill="white"/>
</svg>
