<svg width="70" height="31" viewBox="0 0 70 31" fill="none" xmlns="http://www.w3.org/2000/svg">
<path fill-rule="evenodd" clip-rule="evenodd" d="M0 7.88291V9.51706C0 11.5412 1.65369 14.3731 4.45295 15.3387C4.45295 15.3387 4.47373 15.3468 4.51248 15.3619C4.47373 15.377 4.45295 15.3851 4.45295 15.3851C1.65369 16.3508 0 19.192 0 21.2068V22.8409C0 28.1334 4.35133 30.7239 8.61027 30.7239C11.1758 30.7239 13.6725 29.6793 15.3138 27.6402C16.955 29.6855 19.4554 30.7332 22.0248 30.7332C26.2838 30.7332 30.6351 28.1334 30.6351 22.8502V21.2161C30.6351 19.2013 28.9814 16.3601 26.1914 15.3944C26.1905 15.3936 26.1603 15.3813 26.1054 15.3595C26.155 15.34 26.1819 15.3294 26.1819 15.3294C28.9811 14.3638 30.6256 11.5319 30.6256 9.50778V7.88291C30.6348 2.59978 26.2835 0 22.0245 0C19.4483 0 16.958 1.04604 15.3174 3.08806C13.6768 1.04604 11.1865 0 8.61027 0C4.35133 0 0 2.59978 0 7.88291ZM17.2298 9.13638C17.2298 9.13638 17.2341 9.01346 17.2298 8.79952V8.64428C17.4515 5.46883 19.7519 3.9461 22.0707 3.9461C24.4173 3.9461 26.8101 5.29241 26.8101 7.88291V9.51706C26.8101 11.634 24.6668 13.2775 21.8305 13.6489C21.8305 13.6489 21.8305 13.6521 21.8304 13.6583C21.8125 13.6699 21.8124 14.5002 21.8168 15.3393C21.8121 16.2041 21.8119 17.0751 21.8305 17.0657C21.8306 17.0657 21.8307 17.0657 21.8307 17.0656C21.8308 17.0718 21.8308 17.075 21.8308 17.075C24.6578 17.4557 26.8104 19.0898 26.8104 21.2068V22.841C26.8104 25.4407 24.4176 26.7871 22.071 26.7871C19.7802 26.7871 17.4893 25.3009 17.2205 22.2032C17.2379 21.8205 17.2298 21.5875 17.2298 21.5875V9.13638ZM13.4142 8.52178C13.1508 5.42966 10.8529 3.9461 8.56407 3.9461C6.2175 3.9461 3.82473 5.28313 3.82473 7.88291V9.52635C3.82473 11.6433 5.96806 13.2867 8.80428 13.6581C8.82279 13.6535 8.82275 14.5112 8.81811 15.3683C8.82275 16.2266 8.82279 17.0843 8.80428 17.075C5.96806 17.4464 3.82473 19.0898 3.82473 21.2068V22.8409C3.82473 25.4407 6.2175 26.787 8.56408 26.787C10.8829 26.787 13.1833 25.2829 13.405 22.1074V21.931V21.9191C13.4018 21.748 13.4042 21.638 13.405 21.6063V9.13638V8.80212C13.4066 8.72119 13.4094 8.62717 13.4142 8.52178ZM41.3425 0.0185699C37.1944 0.0185699 33.4066 2.25624 33.4066 7.18654V23.3888C33.4066 28.3098 37.3237 30.6867 41.4256 30.6867C45.352 30.6867 49.4077 28.3191 49.4077 23.3888V17.7899C49.4077 12.9525 45.5275 10.7148 41.4256 10.7148C40.0491 10.7148 37.6378 11.569 36.8803 13.361L36.9265 7.17726C36.9265 4.80031 39.0698 3.59327 41.3425 3.59327C42.682 3.59327 44.1048 4.04823 45.6661 5.52454L46.3312 4.85602H46.3774C46.409 4.82645 46.4376 4.79881 46.4642 4.77319L46.4644 4.773C46.5544 4.6861 46.6202 4.6226 46.6915 4.58676C46.7332 4.54494 46.8048 4.47297 46.8861 4.42517C46.8821 4.43 46.89 4.42592 46.9133 4.41035C46.9041 4.41495 46.8951 4.41991 46.8861 4.42517C46.9003 4.40792 47.0666 4.27678 47.2274 4.1499L47.2274 4.14986L47.2278 4.14955C47.2901 4.10046 47.3515 4.05203 47.4029 4.01109L47.4122 4.00366C47.6398 3.82062 47.8615 3.64241 48.299 3.15688C45.7585 0.510672 43.6613 0.0185699 41.3425 0.0185699ZM41.4256 14.2709C43.6983 14.2709 45.8416 15.4316 45.8416 17.8085V23.4166C45.7492 25.84 43.5227 27.0934 41.3794 27.0934C39.1529 27.0934 36.9265 25.84 36.9265 23.4166V17.9478C36.9265 15.4316 39.1068 14.2709 41.4256 14.2709ZM53.7678 7.2794C53.7678 2.41409 57.7588 0.0278625 61.9253 0.0278625C65.9164 0.0278625 69.9998 2.41409 69.9998 7.2794V23.3702C69.9998 28.3748 65.9164 30.761 61.9253 30.761C57.7588 30.761 53.7678 28.3748 53.7678 23.3702V7.2794ZM57.3615 23.3609C57.3615 25.84 59.6065 27.1027 61.9346 27.1027C64.1333 27.1027 66.4152 25.84 66.4152 23.3609V7.2794C66.4152 4.93959 64.1333 3.67684 61.9346 3.67684C59.6065 3.67684 57.3615 4.93959 57.3615 7.2794V23.3609Z" fill="url(#paint0_linear_382_29443)"/>
<defs>
<linearGradient id="paint0_linear_382_29443" x1="-22.7733" y1="15.3805" x2="65.0758" y2="57.6557" gradientUnits="userSpaceOnUse">
<stop stop-color="#E3772D"/>
<stop offset="1" stop-color="#F2B559"/>
</linearGradient>
</defs>
</svg>
