<svg width="70" height="31" viewBox="0 0 70 31" fill="none" xmlns="http://www.w3.org/2000/svg">
<path fill-rule="evenodd" clip-rule="evenodd" d="M0 8.0023V9.63645C0 11.6606 1.65369 14.4925 4.45295 15.4581C4.45295 15.4581 4.47373 15.4662 4.51248 15.4813C4.47373 15.4964 4.45295 15.5045 4.45295 15.5045C1.65369 16.4702 0 19.3113 0 21.3262V22.9603C0 28.2527 4.35133 30.8432 8.61027 30.8432C11.1758 30.8432 13.6725 29.7987 15.3138 27.7596C16.955 29.8048 19.4554 30.8525 22.0248 30.8525C26.2838 30.8525 30.6351 28.2528 30.6351 22.9696V21.3355C30.6351 19.3207 28.9814 16.4795 26.1914 15.5138C26.1905 15.513 26.1603 15.5007 26.1054 15.4788C26.155 15.4594 26.1819 15.4488 26.1819 15.4488C28.9811 14.4832 30.6256 11.6513 30.6256 9.62716V8.0023C30.6348 2.71917 26.2835 0.119385 22.0245 0.119385C19.4483 0.119385 16.958 1.16542 15.3174 3.20745C13.6768 1.16542 11.1865 0.119385 8.61027 0.119385C4.35133 0.119385 0 2.71917 0 8.0023ZM17.2298 9.25576C17.2298 9.25576 17.2341 9.13285 17.2298 8.91891V8.76366C17.4515 5.58821 19.7519 4.06548 22.0707 4.06548C24.4173 4.06548 26.8101 5.4118 26.8101 8.0023V9.63645C26.8101 11.7534 24.6668 13.3968 21.8305 13.7682C21.8305 13.7682 21.8305 13.7715 21.8304 13.7777C21.8125 13.7893 21.8124 14.6196 21.8168 15.4586C21.8121 16.3235 21.8119 17.1945 21.8305 17.1851C21.8306 17.1851 21.8307 17.185 21.8307 17.185C21.8308 17.1912 21.8308 17.1944 21.8308 17.1944C24.6578 17.5751 26.8104 19.2092 26.8104 21.3262V22.9603C26.8104 25.5601 24.4176 26.9064 22.071 26.9064C19.7802 26.9064 17.4893 25.4203 17.2205 22.3226C17.2379 21.9398 17.2298 21.7069 17.2298 21.7069V9.25576ZM13.4142 8.64116C13.1508 5.54904 10.8529 4.06548 8.56407 4.06548C6.2175 4.06548 3.82473 5.40251 3.82473 8.0023V9.64573C3.82473 11.7627 5.96806 13.4061 8.80428 13.7775C8.82279 13.7729 8.82275 14.6306 8.81811 15.4877C8.82275 16.346 8.82279 17.2037 8.80428 17.1944C5.96806 17.5658 3.82473 19.2092 3.82473 21.3262V22.9603C3.82473 25.5601 6.2175 26.9064 8.56408 26.9064C10.8829 26.9064 13.1833 25.4023 13.405 22.2268V22.0504V22.0385C13.4018 21.8674 13.4042 21.7574 13.405 21.7257V9.25576V8.9215C13.4066 8.84057 13.4094 8.74655 13.4142 8.64116ZM41.3425 0.137955C37.1944 0.137955 33.4066 2.37563 33.4066 7.30593V23.5081C33.4066 28.4292 37.3237 30.8061 41.4256 30.8061C45.352 30.8061 49.4077 28.4384 49.4077 23.5081V17.9093C49.4077 13.0719 45.5275 10.8342 41.4256 10.8342C40.0491 10.8342 37.6378 11.6884 36.8803 13.4804L36.9265 7.29664C36.9265 4.9197 39.0698 3.71266 41.3425 3.71266C42.682 3.71266 44.1048 4.16762 45.6661 5.64392L46.3312 4.97541H46.3774C46.409 4.94584 46.4376 4.91819 46.4642 4.89258L46.4644 4.89238C46.5544 4.80549 46.6202 4.74198 46.6915 4.70614C46.7332 4.66432 46.8048 4.59236 46.8861 4.54456C46.8821 4.54938 46.89 4.5453 46.9133 4.52973C46.9041 4.53433 46.8951 4.5393 46.8861 4.54456C46.9003 4.5273 47.0666 4.39616 47.2274 4.26929L47.2274 4.26924L47.2278 4.26893C47.2901 4.21984 47.3515 4.17141 47.4029 4.13048L47.4122 4.12304C47.6398 3.94001 47.8615 3.76179 48.299 3.27626C45.7585 0.630056 43.6613 0.137955 41.3425 0.137955ZM41.4256 14.3903C43.6983 14.3903 45.8416 15.551 45.8416 17.9279V23.536C45.7492 25.9594 43.5227 27.2128 41.3794 27.2128C39.1529 27.2128 36.9265 25.9594 36.9265 23.536V18.0672C36.9265 15.551 39.1068 14.3903 41.4256 14.3903ZM53.7678 7.39878C53.7678 2.53348 57.7588 0.147247 61.9253 0.147247C65.9164 0.147247 69.9998 2.53348 69.9998 7.39878V23.4896C69.9998 28.4942 65.9164 30.8804 61.9253 30.8804C57.7588 30.8804 53.7678 28.4942 53.7678 23.4896V7.39878ZM57.3615 23.4803C57.3615 25.9594 59.6065 27.2221 61.9346 27.2221C64.1333 27.2221 66.4152 25.9594 66.4152 23.4803V7.39878C66.4152 5.05898 64.1333 3.79623 61.9346 3.79623C59.6065 3.79623 57.3615 5.05898 57.3615 7.39878V23.4803Z" fill="white"/>
</svg>
